<?xml version="1.0" encoding="iso-8859-1"?>
<!-- Uploaded to: SVG Repo, www.svgrepo.com, Generator: SVG Repo Mixer Tools -->
<svg height="36px" width="36px" version="1.1" id="Layer_1" xmlns="http://www.w3.org/2000/svg"
	xmlns:xlink="http://www.w3.org/1999/xlink" viewBox="0 0 392.598 392.598" xml:space="preserve">
	<path style="fill:#FFC10D;" d="M216.274,370.747v-38.853c0-5.107,3.556-9.503,8.469-10.667c14.158-3.168,27.539-8.727,39.822-16.549
	c4.331-2.715,9.956-2.069,13.511,1.552l27.539,27.539l28.186-28.186l-27.539-27.539c-3.62-3.62-4.267-9.18-1.552-13.511
	c7.758-12.283,13.317-25.665,16.549-39.822c1.164-4.913,5.56-8.469,10.667-8.469h38.853v-39.887h-38.853
	c-5.107,0-9.503-3.556-10.667-8.469c-3.168-14.158-8.727-27.539-16.549-39.822c-2.715-4.331-2.069-9.891,1.552-13.511l27.539-27.539
	l-28.186-28.186l-27.539,27.539c-3.62,3.62-9.18,4.267-13.511,1.552c-12.283-7.758-25.665-13.317-39.887-16.549
	c-4.913-1.164-8.469-5.56-8.469-10.667V21.851h-39.887v38.853c0,5.107-3.556,9.503-8.469,10.667
	c-14.158,3.168-27.604,8.727-39.822,16.549c-4.331,2.715-9.891,2.069-13.511-1.552L86.981,58.828L58.796,87.014l27.539,27.539
	c3.62,3.62,4.267,9.18,1.552,13.511c-7.758,12.283-13.317,25.665-16.549,39.822c-1.164,4.913-5.56,8.469-10.667,8.469H21.883v39.887
	h38.853c5.107,0,9.503,3.556,10.667,8.469c3.168,14.158,8.727,27.539,16.549,39.822c2.715,4.331,2.069,9.891-1.552,13.511
	l-27.475,27.475l28.186,28.186l27.539-27.539c3.62-3.62,9.18-4.267,13.511-1.552c12.283,7.758,25.665,13.317,39.822,16.549
	c4.913,1.164,8.469,5.56,8.469,10.667v38.853h39.822V370.747z M102.626,196.267c0-51.717,42.02-93.737,93.737-93.737
	s93.737,42.02,93.737,93.737s-42.02,93.737-93.737,93.737S102.626,247.984,102.626,196.267z" />
	<g>
		<path style="fill:#194F82;" d="M196.363,102.529c-51.717,0-93.737,42.02-93.737,93.737s42.02,93.737,93.737,93.737
		s93.737-42.02,93.737-93.737S248.08,102.529,196.363,102.529z M196.363,268.218c-28.121,0-52.364-16.226-64.194-39.822h26.634
		c6.012,0,10.925-4.848,10.925-10.925c0-6.012-4.848-10.925-10.925-10.925h-33.552c-0.453-3.426-0.84-6.788-0.84-10.279
		c0-3.943,0.388-7.758,1.034-11.507h66.004c6.012,0,10.925-4.848,10.925-10.925c0-6.012-4.848-10.925-10.925-10.925h-58.828
		c12.024-22.949,36.008-38.659,63.677-38.659c39.628,0,71.952,32.194,71.952,71.952
		C268.315,235.895,235.992,268.218,196.363,268.218z" />
		<path style="fill:#194F82;" d="M381.769,154.57H340.46c-3.103-10.667-7.37-20.881-12.671-30.578l29.22-29.22
		c4.267-4.267,4.267-11.119,0-15.451l-43.636-43.636c-4.267-4.267-11.119-4.267-15.451,0l-29.22,29.22
		c-9.632-5.43-19.911-9.568-30.578-12.671V10.925C238.125,4.913,233.276,0,227.2,0h-61.673c-6.012,0-10.925,4.848-10.925,10.925
		v41.309c-10.667,3.103-20.881,7.37-30.578,12.671l-29.22-29.22c-4.267-4.267-11.119-4.267-15.451,0L35.782,79.257
		c-4.396,3.943-4.331,10.99,0,15.451l29.22,29.22c-5.43,9.697-9.568,19.976-12.671,30.642H10.957
		c-6.012,0-10.925,4.848-10.925,10.925v61.673c0,6.012,4.848,10.925,10.925,10.925h41.309c3.103,10.667,7.37,20.881,12.671,30.578
		l-29.22,29.22c-4.461,4.267-4.008,11.378,0,15.451l43.572,43.572c4.267,4.267,11.119,4.267,15.451,0l29.22-29.22
		c9.762,5.301,19.911,9.568,30.578,12.671v41.309c0,6.012,4.848,10.925,10.925,10.925h61.673c6.012,0,10.925-4.848,10.925-10.925
		v-41.309c10.667-3.103,20.881-7.37,30.578-12.671l29.22,29.22c4.267,4.267,11.119,4.267,15.451,0l43.572-43.572
		c4.267-4.267,4.267-11.119,0-15.451l-29.22-29.22c5.301-9.762,9.568-19.911,12.671-30.578h41.309
		c6.012,0,10.925-4.848,10.925-10.925v-61.673C392.63,159.418,387.781,154.57,381.769,154.57z M370.844,216.178h-38.853
		c-5.107,0-9.503,3.556-10.667,8.469c-3.168,14.158-8.727,27.539-16.549,39.822c-2.715,4.331-2.069,9.891,1.552,13.511
		l27.539,27.539l-28.251,28.186l-27.539-27.539c-3.62-3.62-9.18-4.267-13.511-1.552c-12.283,7.758-25.665,13.317-39.822,16.549
		c-4.913,1.164-8.469,5.56-8.469,10.667v38.853h-39.887V331.83c0-5.107-3.556-9.503-8.469-10.667
		c-14.158-3.168-27.539-8.727-39.822-16.549c-4.331-2.715-9.956-2.069-13.511,1.552l-27.475,27.539l-28.186-28.186l27.539-27.539
		c3.62-3.62,4.267-9.18,1.552-13.511c-7.758-12.283-13.317-25.665-16.549-39.822c-1.164-4.913-5.56-8.469-10.667-8.469H21.883
		v-39.887h38.853c5.107,0,9.503-3.556,10.667-8.469c3.168-14.158,8.727-27.539,16.549-39.822c2.715-4.331,2.069-9.891-1.552-13.511
		L58.925,87.014l28.186-28.186l27.539,27.539c3.62,3.62,9.18,4.267,13.511,1.552c12.283-7.758,25.665-13.317,39.822-16.549
		c4.913-1.164,8.469-5.56,8.469-10.667V21.851h39.887v38.853c0,5.107,3.556,9.503,8.469,10.667
		c14.158,3.168,27.604,8.727,39.822,16.549c4.331,2.715,9.956,2.069,13.511-1.552l27.539-27.539l28.186,28.186l-27.539,27.539
		c-3.62,3.62-4.267,9.18-1.552,13.511c7.758,12.283,13.317,25.665,16.549,39.822c1.164,4.913,5.56,8.469,10.667,8.469h38.853
		V216.178z" />
	</g>
</svg>